<?xml version="1.0" encoding="utf-8"?>
<!-- Generator: Adobe Illustrator 24.0.0, SVG Export Plug-In . SVG Version: 6.00 Build 0)  -->
<svg version="1.1" id="Layer_1" xmlns="http://www.w3.org/2000/svg" xmlns:xlink="http://www.w3.org/1999/xlink" x="0px" y="0px"
	 viewBox="0 0 960 560" style="enable-background:new 0 0 960 560;" xml:space="preserve">
<style type="text/css">
	.st0{fill:#EBD0D3;stroke:#000000;stroke-width:25;stroke-miterlimit:10;}
</style>
<rect x="137.27" y="135.83" class="st0" width="684.45" height="286.34"/>
<g id="dXzrJO_2_">
	<g>
		<path d="M418.73,336.87c0,11.56-0.3,22.97,0.15,34.36c0.17,4.33-0.74,5.76-5.06,5.43c-6.05-0.47-12.14-0.69-18.21-0.66
			c-3.62,0.02-4.59-1.2-4.59-4.85c0-36.34-0.21-72.68-0.37-109.02c-0.08-16.76,0.02-33.53-0.44-50.29c-0.14-5.1,1.71-5.98,6.16-5.85
			c29.8,0.86,59.61,2.19,89.41,1.99c14.11-0.09,27.69,0.73,40.76,6.02c45.96,18.61,47.3,70.15,24.95,98.09
			c-2.99,3.73-6.88,6.85-10.72,9.77c-3.77,2.86-8.02,5.09-12.58,7.93c3.21,5.32,6.38,10.67,9.66,15.96
			c5.31,8.56,10.69,17.08,16.04,25.61c2,3.18,1,4.65-2.63,4.78c-7.36,0.26-14.72,0.85-22.06,0.69c-2.08-0.05-4.94-1.74-6.02-3.53
			c-6.48-10.81-12.42-21.94-18.87-32.77c-1.06-1.79-3.72-3.69-5.67-3.72c-25.61-0.46-51.22-0.61-76.83-0.77
			C420.82,336,419.82,336.55,418.73,336.87z M418.25,311.19c2.29,0.41,3.12,0.69,3.94,0.68c26.06-0.2,52.19,0.61,78.18-0.94
			c30-1.79,44.08-26.98,35.27-53.21c-5.32-15.82-21.52-24.88-40.24-24.82c-23.79,0.07-47.58-0.44-71.37-0.9
			c-4.59-0.09-6.23,1.03-6.07,6.03c0.45,14.26,0.25,28.54,0.29,42.82C418.27,290.88,418.25,300.9,418.25,311.19z"/>
		<path d="M690.17,192.15c21.79,0.26,41.87,4.99,58.22,19.72c17.26,15.55,22.53,36.42,22.91,58.71c0.26,15.33-3.19,30.08-9.75,43.99
			c-11.5,24.39-29.97,41.11-55.33,50.42c-26.47,9.73-52.56,9.08-77.76-3.45c-30.22-15.03-44.57-45.58-41.3-79.2
			c1.87-19.26,7.83-36.35,20.4-51.22c13.59-16.08,30.62-26.8,50.63-32.52C668.62,195.64,679.5,194.25,690.17,192.15z M746.28,277.13
			c0.08-1.47,0.26-2.95,0.23-4.42c-0.52-27.41-12.79-47.43-41.39-53.13c-10.61-2.11-22.23-0.93-33.13,0.62
			c-25.61,3.63-52.73,25.7-56.88,54.32c-3.24,22.36-0.87,43.51,17.51,58.82c20.37,16.96,44.34,17.12,67.95,8.6
			C730.36,331.19,744.6,308.28,746.28,277.13z"/>
		<path d="M363.92,291.54c-0.83,27.48-10.39,51.03-35.19,66.65c-18.18,11.44-38.12,15.27-59.18,12.59
			c-40.45-5.14-69.19-25.82-83.09-64.92c-8.35-23.48-9.11-47.18,0.53-70.61c9.53-23.17,27.29-36.24,51.56-40.35
			c28.28-4.79,55.12,0.57,79.42,15.38C347.8,228.46,363.27,255.58,363.92,291.54z M336.63,290.49c0.07-32.4-17.54-57.86-49.5-68.34
			c-12.21-4-24.57-5.01-37.31-3.36c-10.93,1.42-20.82,4.96-28.9,12.59c-21.11,19.93-20.52,52.99-9.11,76.36
			c14.37,29.44,40.16,41.19,71.87,39.08C315.55,344.68,336.28,322.11,336.63,290.49z"/>
	</g>
</g>
</svg>
